<svg xmlns="http://www.w3.org/2000/svg" width="100" height="100" viewBox="0 0 500 500">
  <metadata><?xpacket begin="﻿" id="W5M0MpCehiHzreSzNTczkc9d"?>
<x:xmpmeta xmlns:x="adobe:ns:meta/" x:xmptk="Adobe XMP Core 5.6-c138 79.159824, 2016/09/14-01:09:01        ">
   <rdf:RDF xmlns:rdf="http://www.w3.org/1999/02/22-rdf-syntax-ns#">
      <rdf:Description rdf:about=""/>
   </rdf:RDF>
</x:xmpmeta>
                                                                                                    
                                                                                                    
                                                                                                    
                                                                                                    
                                                                                                    
                                                                                                    
                                                                                                    
                                                                                                    
                                                                                                    
                                                                                                    
                                                                                                    
                                                                                                    
                                                                                                    
                                                                                                    
                                                                                                    
                                                                                                    
                                                                                                    
                                                                                                    
                                                                                                    
                                                                                                    
                           
<?xpacket end="w"?></metadata>
<defs>
    <style>
      .cls-1 {
        fill-rule: evenodd;
      }
    </style>
  </defs>
  <path id="Color_Fill_1" data-name="Color Fill 1" class="cls-1" d="M399,490.468c-5.5.465-11.3,3.848-17.809,2.378-5.125-1.158-9.84-3.427-14.841-4.16q-0.594-6.537-1.187-13.075c-1.723-3.054-4.231-3.243-4.749-8.32l2.374-4.16c-3.13-2.153-7.719-8.809-7.717-14.264,1.778-2.744.228-9.28-.593-11.291-1.46-3.572-2.176-5.961-4.156-8.915-2.5-3.722-6.973-5.836-7.717-11.291,1.925-1.853-.131-7-1.187-10.1-2.453-7.207-4.637-15.169-7.718-22.584-2.7-6.5-5.2-14.737-8.9-20.8-1.581-2.586-4.856-5.494-5.936-8.321-3.225-8.431-2.624-17.062-5.937-24.96-3.55-8.463-9.4-16.06-13.06-24.366-2.348-5.334-7.852-25.377-11.872-27.338-3.457-2.8-7.575-.952-11.279,0-1.649,3.162-4.852,5.286-6.53,8.32-1.645,2.972-1.839,5.931-3.562,8.915-5.735,9.931-13.25,19.97-19.59,29.714-2.38,3.658-3.226,7.421-5.343,11.292-2.928,5.355-7.255,11.163-10.091,16.641-2.5,4.824-2.59,10.13-5.343,14.857-2.713,4.658-8.894,7.642-11.873,12.48-4.443,7.218-5.068,17.212-9.5,24.367-1.187,1.917-3.477,3.578-4.749,5.348-2.81,3.91-4.628,8.235-7.717,11.886-1.787,2.112-5.817,5.489-6.53,8.321-0.44,1.745.967,2.155,1.187,2.971,0.99,3.663-1.191,7.918-2.374,10.1a37.64,37.64,0,0,1-6.53,8.32c-0.6.57-2.031,0.4-2.375,1.189l0.594,5.349a17.534,17.534,0,0,0-1.188,2.377c-1.717.692-4.437,1.337-5.342,2.971,1.163,1.772.67,6.7,0.593,9.509-1.733,1.093-1.724,1.628-4.749,1.783-0.423-.336-0.025-0.857-1.187-0.594v0.594c-2.868,3.168-3.366,11.067-3.562,16.64h-1.187c-6.024,5.771-24.047,1.7-24.933-5.348,1.194-1.422,8.087-18.237,8.311-20.207,0.157-1.382-2.128-2.632-1.187-5.348,0.845-2.44,4.235-3.984,5.343-6.538,1.873-4.32,1.683-9.411,4.155-13.074,1.958-2.9,6.65-5.337,8.311-8.32,0.87-1.563-1.155-5.716.594-8.32,1.027-1.531,3.619-1.077,4.749-2.378,1.779-2.048,1.692-5.167,2.968-7.726,3-6.017,6.011-11.851,8.9-18.423,7.739-17.578,19.212-32.878,26.714-51.11,5.275-12.821,8.123-27.212,12.466-40.412,1.086-3.3.584-6.146,1.781-9.509,2.128-5.976,2.892-14.848,5.936-20.8,2.369-4.631,6.455-9.195,7.124-15.452h-1.187c-2.693,1.717-16.465-1.055-19.59-1.783-7.011-1.632-13.164-.428-19.59-2.377-10.683-3.24-24.207-8.956-35.025-10.7-0.188-6.478-2.794-13.283-1.187-20.206,2.161-9.311,5.422-18.253,7.717-26.743v-5.943c3.61-14.992,4.515-29.375,15.435-36.847V154.1h-3.562c-1.538,2.531-2.919,4.127-7.123,4.16-5.7-3.816-11.713,2.347-16.029,3.566-7.018,1.982-15.549-1.3-16.028-6.537-2.668-4.373,2.415-12.429,1.188-17.235-0.477-1.867-2.425-4.263-2.969-6.537-2.793-11.7,1.153-38.548,5.343-45.167,2.3-3.641,8.658-5.423,12.466-7.726,5.555-3.358,18.5-7.561,28.5-4.16C193.87,79.4,196.643,96.936,201.32,111.9c1.231,3.936.315,9.34,2.375,12.48v-1.189c2.146-2.262,6.306-10.321,6.53-14.263-1.75-2.25-1.728-4.781-2.968-7.726-3.71-8.808-8.177-18.547-11.873-27.337-1.309-3.113-1.2-6.224-2.968-8.915-1.313-1.994-4.144-2.6-5.937-4.16-4.473-3.9-8.81-7.644-13.653-11.292-8.062-6.072-14.146-15.1-21.965-21.395-4.1-3.3-9.4-4.611-14.247-7.132-1.12-.583-2.81-2.585-4.155-2.972-1.837-.529-2.834.484-4.156,0.594-7.261.6-11.933,0.471-17.809,2.377-3.73,1.21-6.33,3.276-11.279,3.566,0.452-2.668,1.6-3.062,2.375-5.349H101a9.988,9.988,0,0,1-7.123,4.16c0.4-5.834,3.935-9.241,5.343-14.263C97.5,8.491,94.66,8.456,92.092,8.492,90.1,7.2,84.881,7.289,82,7.3V5.52c17.435-.245,30.892-1.747,45.71,1.783l13.06,1.189c2.109,0.867,4.637,3.651,6.53,4.754,9.109,5.314,18.04,10.142,26.713,15.452,12.716,7.785,28.652,13.929,36.805,26.149,6.01,9.007,10.657,19.8,15.435,29.715,1.105,2.294.634,4.323,1.781,6.537,2.776,5.363,7.541,10.284,10.685,15.452l5.343,13.075c4.915,7.356,14.976,10.665,20.183,17.829,4.05,5.571,6.844,11.419,10.686,17.234,3.668,5.553,8.391,11.532,11.279,17.829,3.015,6.574,5.593,13.307,8.311,19.612l2.374,7.726c3.594,5.536,13.428,10.018,16.622,15.452,1.183,2.013.735,3.837,1.781,5.943a140.284,140.284,0,0,1,8.9,21.395l0.594,9.508c2.7,7.083,6.956,15.385,10.092,22.584,4.83,11.09,6.144,25.072,9.5,36.846q0.889,8.32,1.781,16.641c2.59,10.539,3.261,21.165,6.53,31.5,1.884,5.956,6.5,11.576,8.9,17.234,4.156,9.762,4.385,20.594,8.311,30.9,1.657,4.351,5.354,8.763,7.124,13.074,1.793,4.37.415,9.136,2.374,13.669,1.5,3.469,5.542,6.9,7.124,10.7,2.743,6.583,1.156,14.774,3.562,21.989C392.454,474.363,398.548,483.268,399,490.468ZM226.846,245.617c-0.1-13.227,5.789-10.375,5.937-21.989-3.239-4.06-4.125-10.022-8.311-13.075-5.809-4.236-13.141-6.054-19-10.1-4.432-3.064-6.281-9.333-10.092-13.074v0.594c-7.02,4.853-13.6,21.147-17.215,29.715-0.987,2.339-4.15,10.48-3.562,11.292,0.379,1.76.353,2.193,1.781,2.971,3.361,2.269,9.247,1.963,13.06,3.566,4.292,1.8,8.779,4.792,13.059,6.537Z"/>
</svg>
