<svg xmlns="http://www.w3.org/2000/svg" width="300" height="300" viewBox="0 0 300 300">
  <metadata><?xpacket begin="﻿" id="W5M0MpCehiHzreSzNTczkc9d"?>
<x:xmpmeta xmlns:x="adobe:ns:meta/" x:xmptk="Adobe XMP Core 5.6-c138 79.159824, 2016/09/14-01:09:01        ">
   <rdf:RDF xmlns:rdf="http://www.w3.org/1999/02/22-rdf-syntax-ns#">
      <rdf:Description rdf:about=""/>
   </rdf:RDF>
</x:xmpmeta>
                                                                                                    
                                                                                                    
                                                                                                    
                                                                                                    
                                                                                                    
                                                                                                    
                                                                                                    
                                                                                                    
                                                                                                    
                                                                                                    
                                                                                                    
                                                                                                    
                                                                                                    
                                                                                                    
                                                                                                    
                                                                                                    
                                                                                                    
                                                                                                    
                                                                                                    
                                                                                                    
                           
<?xpacket end="w"?></metadata>
<defs>
    <style>
      .cls-1 {
        fill-rule: evenodd;
      }
    </style>
  </defs>
  <path id="E" class="cls-1" d="M67.993,60.784Q54.93,87.151,54.932,113.4a52.891,52.891,0,0,0,2.93,16.724Q33.568,143.427,20.02,160.271q-13.8,17.093-13.794,36.011,0,25.146,26,39.185,25.878,14.158,68.115,14.16,42.6,0,68.359-15.381,2.807-5.739,6.409-14.16t6.47-15.93q2.867-7.507,7.263-19.959-25.269,16.6-37.354,21A77.272,77.272,0,0,1,125,209.832q-78,0-78-34.79,0-15.5,15.5-35.4,8.666,6.957,23.071,11.84,14.648,5.007,22.827,5,1.343,0,7.2-2.441,2.44-4.515,5-8.789,8.058-13.426,10.01-18.555-22.829-1.464-35.522-15.259T82.4,77.264A45.186,45.186,0,0,1,87.28,55.9Q125,57.732,165.771,98.992l2.808-16.479q2.2-11.6,2.2-14.526,0-17.821-19.409-31.86a72.07,72.07,0,0,0-21.911-10.8,108.975,108.975,0,0,0-27.649-4.456Q80.932,34.906,67.993,60.784h0Z"/>
  <path id="x" class="cls-1" d="M187.3,172.571q12.946,20.477,26.2,43.661l-25.293,25.443q-15.356,15.508-38.09,36.735,27.4-8.281,35.832-10.237,29.506-23.939,38.993-32.67,14,24.993,17.163,43.359,12.946-9.033,38.542-16.862-6.774-51.038-25.443-74.223,12.647-12.646,27.4-28.906L300.52,139v-1.355q-9.636,0-35.53-3.011l-20.777,29.96a237.188,237.188,0,0,0-26.8-37.187l-57.361,14.3q15.052,11.744,27.25,30.863h0Z"/>
</svg>
