<svg xmlns="http://www.w3.org/2000/svg" width="100" height="100" viewBox="0 0 500 500">
  <metadata><?xpacket begin="﻿" id="W5M0MpCehiHzreSzNTczkc9d"?>
<x:xmpmeta xmlns:x="adobe:ns:meta/" x:xmptk="Adobe XMP Core 5.6-c138 79.159824, 2016/09/14-01:09:01        ">
   <rdf:RDF xmlns:rdf="http://www.w3.org/1999/02/22-rdf-syntax-ns#">
      <rdf:Description rdf:about=""/>
   </rdf:RDF>
</x:xmpmeta>
                                                                                                    
                                                                                                    
                                                                                                    
                                                                                                    
                                                                                                    
                                                                                                    
                                                                                                    
                                                                                                    
                                                                                                    
                                                                                                    
                                                                                                    
                                                                                                    
                                                                                                    
                                                                                                    
                                                                                                    
                                                                                                    
                                                                                                    
                                                                                                    
                                                                                                    
                                                                                                    
                           
<?xpacket end="w"?></metadata>
<defs>
    <style>
      .cls-1 {
        fill-rule: evenodd;
      }
    </style>
  </defs>
  <path id="Color_Fill_1" data-name="Color Fill 1" class="cls-1" d="M246.826,18.08c107.433-1.767,172.377,29.309,200.72,106.4,9.641,26.222,15.116,72.4,5.147,102.965a225.886,225.886,0,0,1-30.88,60.92c-15.43,21.953-32.761,39.877-41.174,69.5-6.027,21.223-2.689,53.327,4.289,70.359,3.7,9.041,10.085,16.268,10.293,28.315-2.048,2.194-1.854,3.943-5.146,5.148-9.056,6.994-24.836,7.57-36.885,11.155-33.047,9.832-89,14.4-126.95,5.148-13.7-3.34-28.383-3.359-38.6-10.3-11.183-7.593-4.271-18.653-7.72-33.463-2.135-9.167-6.276-17.649-13.725-21.451-8.855-4.52-23.656-2.122-32.595,0-18.234,4.328-38.631-1.784-45.462-12.013-11.835-17.718.965-66.825-7.72-88.377-4.033-10.007-13.335-13.141-23.16-17.161-5.413-2.215-9.9-1.388-12.009-6.865-5.839-6.464,1.125-18.2,4.289-24.025,7.232-13.311,16.993-26.173,25.733-38.611,3.6-5.128,9.521-10.277,12.009-16.3,3.835-9.291-1.609-22.684-3.431-30.889-3.085-13.889,2.527-37.765,6-47.193,17.543-47.563,53.324-82.312,99.5-101.248,11.1-4.552,23.809-6.511,36.027-9.438C231.128,19.278,242.605,20.724,246.826,18.08Zm-43.746,192.2c-3.262,24.326,5.844,35.619,23.16,42.044,5.126,1.9,12.774,3.761,19.728,1.716,14.171-4.167,25.427-15.142,34.311-24.883,7.616-.167,10.443,2.691,10.294,10.3-9.562,8.944-17.132,20.08-30.022,25.741-5.762,2.531-19.334,2.7-24.018,6.007,5.784,6.028,7.9,9.775,18.013,12.012,5.935,1.313,10.828-2.886,15.44-1.716s9.693,6.31,15.44,7.722c8.792,2.161,15.653-1.992,22.3-2.574,13.1,19.893,45.325,17.089,58.329-.858,2.737-3.777,6.415-17.861,9.436-19.735,4.915,3.648,13.873.976,18.013-.858,13.222-5.856,18.092-15.035,16.3-33.463,13.857-8.842,25.765-34.736,18.871-58.347-1.842-6.308-2.445-14.471-7.72-17.16-6.468-5.944-21.506-3.435-27.449.858l-8.578,10.3h-7.72c-1.764-2.652-2.968-2.511-3.431-6.864-0.5-.826-0.092-1.641,0-4.29,8.11-6.09,11.925-14.353,23.16-18.019,4.28-1.4,14.808.888,17.156-2.574,2.106-2.656,1.845-7.952,1.715-12.871-2.929-3.025-4.175-7.916-7.72-10.3-2.986-2.005-10-1.3-12.009-4.291,6.361-8.54-4.392-15.928-8.578-19.734-5.328-.131-6.783.221-12.008,0.858,0.235-13.652-7.245-20.761-18.014-23.167-6.227-1.391-11.055,3.839-14.582,2.574-5.592-6.047-11.734-18.548-25.733-15.445-3.806.844-7.069,2.747-11.151,3.432-9.433-16.468-37.186-13.945-46.32.858-12.913-6.627-24.673-9.721-37.742,0-4.063,3.022-5.091,10.274-9.436,12.871-2.639-3.375-6.117-3.078-11.151-4.29-14.919-3.592-22.178,6.631-29.164,13.729,1.808,4.913,3.5,10.3,8.577,12.013,5.521,2.981,10.95-6.423,16.3-4.29,5.191,0.65,6.367,3.427,6.862,8.58-9.267,10.873-26.4,18.1-38.6,4.29-3.9-4.416-3.638-12.867-11.151-13.728l-7.72,5.148c-1.5,1.961-1.777,4.287-3.431,6.006a48.677,48.677,0,0,0,1.716,13.729h-1.716c-5.141,3.291-11.582,3.454-16.3,6.864-9.544,6.9-17.223,28.472-8.577,42.9,3.78,6.309,10.206,8.9,15.44,13.728,9.506,0.078,18.189-1.608,22.3-6.864,2.761-3.529,3.346-9.236,7.72-11.154,1.646-1.521,2.69-1.627,6-1.716,1.886,1.791,3.164,1.472,4.289,4.29,2.884,4.553-.9,9.433-2.573,12.012-4.419,6.815-9.315,13.075-17.156,16.3-3.229,1.33-6.852.839-9.435,2.574l9.435,10.3C166.42,209.73,183.05,211.127,203.08,210.281Zm58.328-144.15c3.006,0.347,4.214,1.079,6.863,1.716,12.512,25.207-1.747,45.348-20.587,53.2-9.78,4.075-23.328,7.052-23.16-7.722,12.223-8.325,30.435-7.086,33.453-24.883,1.057-6.234-2.861-12.271-1.715-18.877A38.211,38.211,0,0,0,261.408,66.131Zm77.2,25.741c18.661-.467,38.431,10.606,39.458,26.6a16.851,16.851,0,0,0-1.716,3.432c-2.775,1.629-3.737,2.491-8.577,2.574-8.425-8.647-16.823-22.152-36.027-17.161-5.589,1.453-10.018,4.482-16.3,5.149-4.161-3.33-6.168-3.085-6-11.155,0.69-.876.3-0.235,0.858-1.716,3.86-2.243,7.16-4.64,12.866-5.148-0.532-8.232-5.141-11.177-6-18.877a16.8,16.8,0,0,0,1.715-3.432c2.93-1.72,4.238-2.564,9.436-2.574C332.993,75.87,337.322,81.877,338.608,91.872Zm-94.355,42.9c3.006,0.347,4.213,1.078,6.862,1.716,1.285,2.843,1.759,5.558,1.716,10.3-5.328,3.59-12.594,16.207-10.294,26.6,1.125,5.08,2.688,9,1.716,14.587-15.345,10.265-20.187-12.76-16.3-27.457C231.033,148.885,236.128,141.341,244.253,134.774ZM309.444,185.4c-16.573-.276-27.632-13.446-33.453-24.883-4.2-8.257-6.354-20.516,6.862-20.593,7.74,8.339,8.823,21.262,18.871,27.457,5.484,3.381,18.784,1.509,21.444,7.722,3.168,5.1,1.474,14.627,5.147,19.735,3.8,5.282,13.727,2.651,16.3,9.439,2.835,3.86-.234,8.4-3.431,9.438-3.987,2.618-10.844-.359-13.725-1.716C317.572,207.342,310.112,199.03,309.444,185.4Zm-4.289,64.353h7.72c5.224,8.44,11.028,24.887,28.307,20.593,6.521-1.621,11.067-4.761,18.871-3.433,1.805,3.079,2.61,4.781,2.573,10.3-19.041,12.96-42.638,11.165-54.9-6.864C302.594,262.794,299.131,258.97,305.155,249.751Z"/>
</svg>
