<svg xmlns="http://www.w3.org/2000/svg" width="100" height="100" viewBox="0 0 500 500">
  <metadata><?xpacket begin="﻿" id="W5M0MpCehiHzreSzNTczkc9d"?>
<x:xmpmeta xmlns:x="adobe:ns:meta/" x:xmptk="Adobe XMP Core 5.6-c138 79.159824, 2016/09/14-01:09:01        ">
   <rdf:RDF xmlns:rdf="http://www.w3.org/1999/02/22-rdf-syntax-ns#">
      <rdf:Description rdf:about=""/>
   </rdf:RDF>
</x:xmpmeta>
                                                                                                    
                                                                                                    
                                                                                                    
                                                                                                    
                                                                                                    
                                                                                                    
                                                                                                    
                                                                                                    
                                                                                                    
                                                                                                    
                                                                                                    
                                                                                                    
                                                                                                    
                                                                                                    
                                                                                                    
                                                                                                    
                                                                                                    
                                                                                                    
                                                                                                    
                                                                                                    
                           
<?xpacket end="w"?></metadata>
<defs>
    <style>
      .cls-1 {
        fill-rule: evenodd;
      }
    </style>
  </defs>
  <path id="Color_Fill_1" data-name="Color Fill 1" class="cls-1" d="M126.122,86.719c-11.668-4.59-13.092-11.514-19.805-18.1,1.056-2.962-.333-5.891-0.426-9.477-0.611-23.7,24.276-39.714,38-34.943,1.8,8.784-.03,19.849,12.12,23.2,1.345-2.2,3.2-2.436,4.253-3.989,2.708-3.988.978-8.776,1.083-11.128,0.112-2.5,12.795-13.879,14.54-14.581,16.028-6.445,50.667,1.291,47.559,22.872,3.191,10.361-18.337,30.121-30.457,26.691-3.457,1.124-6.424-.169-9.2-0.537-5.772,4.908-9.128,6.158-12.2,17.325,3.189,3.285,4.376,6.376,6.47,10.156-2.648,6.861-7.841,8.6-10.692,15.674,1.974,6.6-1.235,12.909-.658,20.606,0.733,9.766,2.012,22.744,3.342,32.137,0.806,5.694-1.254,10.776-.526,16.484,2.031,15.924,2.8,34.588,5.155,51.366,3.175,22.661,8.8,47.428,11.088,70.725,2.853,29.106,4.519,57.876,13.164,81.711,3.317,9.145,12.449,21.116,20.231,27.581,4.353,3.617,10.543,5.048,14.024,9.184,2.153,2.557,2.234,6,4.82,8.646-1.758,10.176.7,21.254-7.513,30.093-3.1,3.334-8.281,4.8-11.664,8.121-2.5-.439-21.319-1.064-23.764-0.516-7.5-2.446-12.491-6.785-19.8-10.824-2.676,3.887-6.5,4.46-10.156,6.47-17.452,9.586-37.213,7.9-45.21-12.848-1.3-3.376.624-6.791,1.084-11.128,1.928-18.182,20.264-19.3,27.56-34.791,1.453-3.085-1.007-8.486-1.114-10.712l1.782-2.613c-0.427-6.746-1.29-15.767-1.954-22.387-0.552-5.492,2.254-8.661,1.9-14.013-1.77-26.96-2.936-58.716-4.659-89.69-1.1-19.713-6.393-41.094-8.739-60.7-0.687-5.738,1.214-10.746.526-16.484-2.12-17.681-4.2-39.808-7.636-57.269-1.461-7.419.809-14.2-.031-21.84C127.929,100.858,125.375,93.724,126.122,86.719Z"/>
  <path id="Color_Fill_1_copy" data-name="Color Fill 1 copy" class="cls-1" d="M372.878,86.719c11.668-4.59,13.092-11.514,19.805-18.1-1.056-2.962.333-5.891,0.426-9.477,0.611-23.7-24.276-39.714-38-34.943-1.8,8.784.03,19.849-12.12,23.2-1.345-2.2-3.2-2.436-4.253-3.989-2.708-3.988-.978-8.776-1.083-11.128-0.112-2.5-12.8-13.879-14.54-14.581-16.028-6.445-50.667,1.291-47.559,22.872-3.191,10.361,18.337,30.121,30.457,26.691,3.457,1.124,6.424-.169,9.2-0.537,5.772,4.908,9.128,6.158,12.2,17.325-3.189,3.285-4.376,6.376-6.47,10.156,2.648,6.861,7.841,8.6,10.692,15.674-1.974,6.6,1.235,12.909.658,20.606-0.733,9.766-2.012,22.744-3.342,32.137-0.806,5.694,1.254,10.776.526,16.484-2.031,15.924-2.8,34.588-5.155,51.366-3.175,22.661-8.8,47.428-11.088,70.725-2.853,29.106-4.519,57.876-13.164,81.711-3.317,9.145-12.449,21.116-20.231,27.581-4.353,3.617-10.543,5.048-14.024,9.184-2.153,2.557-2.234,6-4.82,8.646,1.758,10.176-.7,21.254,7.513,30.093,3.1,3.334,8.281,4.8,11.664,8.121,2.5-.439,21.319-1.064,23.764-0.516,7.5-2.446,12.491-6.785,19.8-10.824,2.676,3.887,6.5,4.46,10.156,6.47,17.452,9.586,37.213,7.9,45.21-12.848,1.3-3.376-.624-6.791-1.084-11.128-1.928-18.182-20.264-19.3-27.56-34.791-1.453-3.085,1.007-8.486,1.114-10.712l-1.782-2.613c0.427-6.746,1.29-15.767,1.954-22.387,0.552-5.492-2.254-8.661-1.9-14.013,1.77-26.96,2.936-58.716,4.659-89.69,1.1-19.713,6.393-41.094,8.739-60.7,0.687-5.738-1.214-10.746-.526-16.484,2.12-17.681,4.2-39.808,7.636-57.269,1.461-7.419-.809-14.2.031-21.84C371.071,100.858,373.625,93.724,372.878,86.719Z"/>
</svg>
