<svg xmlns="http://www.w3.org/2000/svg" width="100" height="100" viewBox="0 0 500 500">
  <metadata><?xpacket begin="﻿" id="W5M0MpCehiHzreSzNTczkc9d"?>
<x:xmpmeta xmlns:x="adobe:ns:meta/" x:xmptk="Adobe XMP Core 5.6-c138 79.159824, 2016/09/14-01:09:01        ">
   <rdf:RDF xmlns:rdf="http://www.w3.org/1999/02/22-rdf-syntax-ns#">
      <rdf:Description rdf:about=""/>
   </rdf:RDF>
</x:xmpmeta>
                                                                                                    
                                                                                                    
                                                                                                    
                                                                                                    
                                                                                                    
                                                                                                    
                                                                                                    
                                                                                                    
                                                                                                    
                                                                                                    
                                                                                                    
                                                                                                    
                                                                                                    
                                                                                                    
                                                                                                    
                                                                                                    
                                                                                                    
                                                                                                    
                                                                                                    
                                                                                                    
                           
<?xpacket end="w"?></metadata>
<defs>
    <style>
      .cls-1 {
        fill-rule: evenodd;
      }
    </style>
  </defs>
  <path id="Color_Fill_1" data-name="Color Fill 1" class="cls-1" d="M187,282c0.2-8.964,1.948-34.194-2-36-3.646,5.5-9.4,9.4-14,14-12.466,12.466-25.688,24.4-38,37-20.1.7-20.574-1.923-31-13-0.754-10.211-.887-18.224,4-25,5.019-6.96,17.881-16.623,25-22l10-11a274.128,274.128,0,0,1,27-24c11.874-8.971,18.611-23.262,33-30,9.157-4.288,29.761.292,42-2v-1c-36.478.355-70.381-47.313-52-86,11.5-24.2,36.054-42.744,73-38,34.965,4.49,63.777,56.978,42,93-6.274,10.377-17.459,22.072-29,27-5.633,2.405-13.621,1.721-19,5h1c8.464,5.031,30.54-1.528,39,2,12.257,5.111,19.106,17.516,29,25,17.97,13.594,32.354,32.651,50,46,8.525,6.449,20.3,14.017,24,25,5.035,14.96-7.346,22.355-14,29-6.542.141-10.7,2.114-17,0-6.577-2.207-10.389-8.7-15-13-7.626-7.106-15.642-13.642-23-21-5.737-5.738-10.523-13.066-18-17v35c-10.209,3.368-27.844,1-40,1H187Zm-9,23c4.066,2.048,4.431,6.462,7,10l8,7c4.97,6.6,11.292,14.335,18,19,5.262,3.66,14.084,5.145,16,12-5.277,3.412-21.961,19.217-24,25,5.45,4.388,7.229,12.891,11,19,7.917,12.825,19.648,25.4,20,45-3.48,4.016-3.294,8.99-9,11-9.4,7.4-22.144-.747-28-6-6.869-6.163-11.536-14.357-17-22-7.739-10.825-17.02-20.83-25-32-5.893-8.249-15.989-15.031-16-29,0-5.481,8.321-13.241,11-17,5.378-7.547,8.639-15.471,14-23C168.433,317.775,174.294,312.112,178,305Zm143,0c3.828,2.7,4.344,6.037,7,10,9.364,13.971,21.254,27.269,30,42,2.28,3.841,4.134,11.986,1,17-2.948,9.445-11.783,15.624-17,23-11.559,16.344-36.582,58.882-61,59-4.082-3.1-10.489-4.473-13-9-5.049-9.1.612-18.809,4-25,5.335-9.747,9.187-19.491,15-29,3.416-5.587,8.59-10.477,10-18-4.771-3.056-22.835-19.545-24-25C290.342,345.28,312.461,319.634,321,305Z"/>
</svg>
