<!-- Generated by IcoMoon.io -->
<svg version="1.1" xmlns="http://www.w3.org/2000/svg" width="32" height="32" viewBox="0 0 32 32">
<title>exe-icon</title>
<path d="M25.536 31.39c-0.352 0.030-0.723 0.246-1.14 0.152-0.328-0.074-0.63-0.219-0.95-0.266q-0.038-0.418-0.076-0.837c-0.11-0.195-0.271-0.208-0.304-0.532l0.152-0.266c-0.2-0.138-0.494-0.564-0.494-0.913 0.114-0.176 0.015-0.594-0.038-0.723-0.093-0.229-0.139-0.381-0.266-0.571-0.16-0.238-0.446-0.373-0.494-0.723 0.123-0.119-0.008-0.448-0.076-0.646-0.157-0.461-0.297-0.971-0.494-1.445-0.173-0.416-0.333-0.943-0.57-1.331-0.101-0.166-0.311-0.352-0.38-0.533-0.206-0.54-0.168-1.092-0.38-1.597-0.227-0.542-0.602-1.028-0.836-1.559-0.15-0.341-0.503-1.624-0.76-1.75-0.221-0.179-0.485-0.061-0.722 0-0.106 0.202-0.311 0.338-0.418 0.532-0.105 0.19-0.118 0.38-0.228 0.571-0.367 0.636-0.848 1.278-1.254 1.902-0.152 0.234-0.206 0.475-0.342 0.723-0.187 0.343-0.464 0.714-0.646 1.065-0.16 0.309-0.166 0.648-0.342 0.951-0.174 0.298-0.569 0.489-0.76 0.799-0.284 0.462-0.324 1.102-0.608 1.559-0.076 0.123-0.223 0.229-0.304 0.342-0.18 0.25-0.296 0.527-0.494 0.761-0.114 0.135-0.372 0.351-0.418 0.533-0.028 0.112 0.062 0.138 0.076 0.19 0.063 0.234-0.076 0.507-0.152 0.646-0.119 0.203-0.257 0.378-0.417 0.532l-0.001 0.001c-0.038 0.036-0.13 0.026-0.152 0.076l0.038 0.342c-0.026 0.043-0.052 0.093-0.073 0.145l-0.003 0.007c-0.11 0.044-0.284 0.086-0.342 0.19 0.074 0.113 0.043 0.429 0.038 0.609-0.111 0.070-0.11 0.104-0.304 0.114-0.027-0.021-0.002-0.055-0.076-0.038v0.038c-0.184 0.203-0.215 0.708-0.228 1.065h-0.076c-0.386 0.369-1.539 0.109-1.596-0.342 0.076-0.091 0.518-1.167 0.532-1.293 0.010-0.088-0.136-0.168-0.076-0.342 0.054-0.156 0.271-0.255 0.342-0.418 0.12-0.276 0.108-0.602 0.266-0.837 0.125-0.186 0.426-0.342 0.532-0.532 0.056-0.1-0.074-0.366 0.038-0.532 0.066-0.098 0.232-0.069 0.304-0.152 0.114-0.131 0.108-0.331 0.19-0.494 0.192-0.385 0.385-0.758 0.57-1.179 0.495-1.125 1.23-2.104 1.71-3.271 0.338-0.821 0.52-1.742 0.798-2.586 0.069-0.211 0.037-0.393 0.114-0.609 0.136-0.382 0.185-0.95 0.38-1.331 0.152-0.296 0.413-0.588 0.456-0.989h-0.076c-0.172 0.11-1.054-0.068-1.254-0.114-0.449-0.104-0.842-0.027-1.254-0.152-0.684-0.207-1.549-0.573-2.242-0.685-0.012-0.415-0.179-0.85-0.076-1.293 0.138-0.596 0.347-1.168 0.494-1.712v-0.38c0.231-0.96 0.289-1.88 0.988-2.358v-0.038h-0.228c-0.098 0.162-0.187 0.264-0.456 0.266-0.365-0.244-0.75 0.15-1.026 0.228-0.449 0.127-0.995-0.083-1.026-0.418-0.171-0.28 0.155-0.795 0.076-1.103-0.031-0.12-0.155-0.273-0.19-0.418-0.179-0.749 0.074-2.467 0.342-2.891 0.147-0.233 0.554-0.347 0.798-0.494 0.356-0.215 1.184-0.484 1.824-0.266 0.929 0.316 1.106 1.438 1.405 2.396 0.079 0.252 0.020 0.598 0.152 0.799v-0.076c0.137-0.145 0.404-0.661 0.418-0.913-0.112-0.144-0.111-0.306-0.19-0.494-0.237-0.564-0.523-1.187-0.76-1.75-0.084-0.199-0.077-0.398-0.19-0.571-0.084-0.128-0.265-0.166-0.38-0.266-0.286-0.25-0.564-0.489-0.874-0.723-0.516-0.389-0.905-0.966-1.406-1.369-0.262-0.211-0.602-0.295-0.912-0.456-0.072-0.037-0.18-0.165-0.266-0.19-0.118-0.034-0.181 0.031-0.266 0.038-0.465 0.038-0.764 0.030-1.14 0.152-0.239 0.077-0.405 0.21-0.722 0.228 0.029-0.171 0.102-0.196 0.152-0.342h-0.038c-0.105 0.147-0.267 0.246-0.453 0.266l-0.003 0c0.026-0.373 0.252-0.591 0.342-0.913-0.11-0.038-0.292-0.040-0.456-0.038-0.128-0.083-0.462-0.077-0.646-0.076v-0.114c1.116-0.016 1.977-0.112 2.925 0.114l0.836 0.076c0.135 0.055 0.297 0.234 0.418 0.304 0.583 0.34 1.155 0.649 1.71 0.989 0.814 0.498 1.834 0.891 2.356 1.674 0.385 0.576 0.682 1.267 0.988 1.902 0.071 0.147 0.041 0.277 0.114 0.418 0.178 0.343 0.483 0.658 0.684 0.989l0.342 0.837c0.315 0.471 0.958 0.683 1.292 1.141 0.259 0.357 0.438 0.731 0.684 1.103 0.235 0.355 0.537 0.738 0.722 1.141 0.193 0.421 0.358 0.852 0.532 1.255l0.152 0.494c0.23 0.354 0.859 0.641 1.064 0.989 0.076 0.129 0.047 0.246 0.114 0.38 0.203 0.383 0.396 0.836 0.551 1.306l0.018 0.063 0.038 0.608c0.173 0.453 0.445 0.985 0.646 1.445 0.309 0.71 0.393 1.605 0.608 2.358q0.057 0.532 0.114 1.065c0.166 0.674 0.209 1.355 0.418 2.016 0.121 0.381 0.416 0.741 0.57 1.103 0.266 0.625 0.281 1.318 0.532 1.978 0.106 0.278 0.343 0.561 0.456 0.837 0.115 0.28 0.027 0.585 0.152 0.875 0.096 0.222 0.355 0.442 0.456 0.685 0.176 0.421 0.074 0.946 0.228 1.407 0.151 0.453 0.541 1.023 0.57 1.483zM14.518 15.72c-0.006-0.847 0.37-0.664 0.38-1.407-0.207-0.26-0.264-0.641-0.532-0.837-0.372-0.271-0.841-0.387-1.216-0.646-0.284-0.196-0.402-0.597-0.646-0.837v0.038c-0.449 0.311-0.87 1.353-1.102 1.902-0.063 0.15-0.266 0.671-0.228 0.723 0.024 0.113 0.023 0.14 0.114 0.19 0.215 0.145 0.592 0.126 0.836 0.228 0.275 0.115 0.562 0.307 0.836 0.418z"></path>
</svg>
