<!-- Generated by IcoMoon.io -->
<svg version="1.1" xmlns="http://www.w3.org/2000/svg" width="32" height="32" viewBox="0 0 32 32">
<title>logo</title>
<path d="M7.253 6.484q-1.393 2.812-1.393 5.612c0.008 0.641 0.122 1.253 0.325 1.823l-0.012-0.039q-2.591 1.419-4.036 3.216-1.472 1.823-1.471 3.841 0 2.682 2.773 4.18 2.76 1.51 7.266 1.51 4.544 0 7.292-1.641 0.299-0.612 0.684-1.51t0.69-1.699 0.775-2.129q-2.695 1.771-3.984 2.24c-0.836 0.313-1.803 0.494-2.812 0.494-0.005 0-0.010 0-0.014 0h0.001q-8.32 0-8.32-3.711 0-1.653 1.653-3.776 0.924 0.742 2.461 1.263 1.562 0.534 2.435 0.533 0.143 0 0.768-0.26 0.26-0.482 0.533-0.938 0.86-1.432 1.068-1.979-2.435-0.156-3.789-1.628t-1.353-3.645c-0.001-0.029-0.001-0.064-0.001-0.098 0-0.796 0.193-1.546 0.534-2.208l-0.013 0.027q4.023 0.195 8.372 4.596l0.3-1.758q0.235-1.237 0.235-1.549 0-1.901-2.070-3.398c-0.668-0.49-1.445-0.884-2.283-1.138l-0.054-0.014c-0.876-0.27-1.886-0.441-2.931-0.475l-0.018-0q-2.227 1.497-3.607 4.257v0z"></path>
<path d="M19.979 18.408q1.381 2.184 2.795 4.657l-2.698 2.714q-1.638 1.654-4.063 3.918 2.923-0.883 3.822-1.092 3.147-2.553 4.159-3.485 1.493 2.666 1.831 4.625 1.381-0.964 4.111-1.799-0.723-5.444-2.714-7.917 1.349-1.349 2.923-3.083l1.911-2.12v-0.145q-1.028 0-3.79-0.321l-2.216 3.196c-0.881-1.5-1.826-2.797-2.882-3.994l0.024 0.027-6.119 1.525q1.606 1.253 2.907 3.292v0z"></path>
</svg>
