<!-- Generated by IcoMoon.io -->
<svg version="1.1" xmlns="http://www.w3.org/2000/svg" width="32" height="32" viewBox="0 0 32 32">
<title>neuro-icon</title>
<path d="M15.797 1.157c6.876-0.113 11.032 1.876 12.846 6.81 0.617 1.678 0.967 4.634 0.329 6.59-0.496 1.488-1.167 2.779-2.006 3.941l0.029-0.043c-0.988 1.405-2.097 2.552-2.635 4.448-0.386 1.358-0.172 3.413 0.274 4.503 0.237 0.579 0.645 1.041 0.659 1.812-0.131 0.14-0.119 0.252-0.329 0.329-0.58 0.448-1.59 0.484-2.361 0.714-2.115 0.629-5.696 0.922-8.125 0.329-0.877-0.214-1.816-0.215-2.47-0.659-0.716-0.486-0.273-1.194-0.494-2.142-0.137-0.587-0.402-1.13-0.878-1.373-0.567-0.289-1.514-0.136-2.086 0-1.167 0.277-2.472-0.114-2.91-0.769-0.757-1.134 0.062-4.277-0.494-5.656-0.258-0.64-0.853-0.841-1.482-1.098-0.346-0.142-0.634-0.089-0.769-0.439-0.374-0.414 0.072-1.165 0.275-1.538 0.463-0.852 1.088-1.675 1.647-2.471 0.23-0.328 0.609-0.658 0.769-1.043 0.245-0.595-0.103-1.452-0.22-1.977-0.197-0.889 0.162-2.417 0.384-3.020 1.123-3.044 3.413-5.268 6.368-6.48 0.71-0.291 1.524-0.417 2.306-0.604 0.368-0.088 1.103 0.004 1.373-0.165zM12.997 13.458c-0.209 1.557 0.374 2.28 1.482 2.691 0.328 0.122 0.818 0.241 1.263 0.11 0.907-0.267 1.627-0.969 2.196-1.592 0.487-0.011 0.668 0.172 0.659 0.659-0.612 0.572-1.096 1.285-1.921 1.647-0.369 0.162-1.237 0.173-1.537 0.384 0.37 0.386 0.506 0.626 1.153 0.769 0.38 0.084 0.693-0.185 0.988-0.11s0.62 0.404 0.988 0.494c0.563 0.138 1.002-0.128 1.427-0.165 0.838 1.273 2.901 1.094 3.733-0.055 0.175-0.242 0.411-1.143 0.604-1.263 0.315 0.233 0.888 0.062 1.153-0.055 0.846-0.375 1.158-0.962 1.043-2.142 0.887-0.566 1.649-2.223 1.208-3.734-0.118-0.404-0.156-0.926-0.494-1.098-0.414-0.38-1.376-0.22-1.757 0.055l-0.549 0.659h-0.494c-0.113-0.17-0.19-0.161-0.22-0.439-0.032-0.053-0.006-0.105 0-0.275 0.519-0.39 0.763-0.919 1.482-1.153 0.274-0.090 0.948 0.057 1.098-0.165 0.135-0.17 0.118-0.509 0.11-0.824-0.187-0.194-0.267-0.507-0.494-0.659-0.191-0.128-0.64-0.083-0.769-0.275 0.407-0.547-0.281-1.019-0.549-1.263-0.341-0.008-0.434 0.014-0.768 0.055 0.015-0.874-0.464-1.329-1.153-1.483-0.399-0.089-0.708 0.246-0.933 0.165-0.358-0.387-0.751-1.187-1.647-0.988-0.244 0.054-0.452 0.176-0.714 0.22-0.604-1.054-2.38-0.892-2.964 0.055-0.826-0.424-1.579-0.622-2.415 0-0.26 0.193-0.326 0.658-0.604 0.824-0.169-0.216-0.392-0.197-0.714-0.275-0.955-0.23-1.419 0.424-1.867 0.879 0.116 0.314 0.224 0.659 0.549 0.769 0.353 0.191 0.701-0.411 1.043-0.275 0.332 0.042 0.408 0.219 0.439 0.549-0.593 0.696-1.69 1.158-2.47 0.275-0.25-0.283-0.233-0.824-0.714-0.879l-0.494 0.329c-0.096 0.125-0.114 0.274-0.22 0.384-0 0.017-0.001 0.037-0.001 0.057 0 0.292 0.040 0.575 0.116 0.844l-0.005-0.022h-0.11c-0.329 0.211-0.741 0.221-1.043 0.439-0.611 0.442-1.102 1.822-0.549 2.746 0.242 0.404 0.653 0.57 0.988 0.879 0.608 0.005 1.164-0.103 1.427-0.439 0.177-0.226 0.214-0.591 0.494-0.714 0.105-0.097 0.172-0.104 0.384-0.11 0.121 0.115 0.203 0.094 0.274 0.275 0.185 0.291-0.058 0.604-0.165 0.769-0.283 0.436-0.596 0.837-1.098 1.043-0.207 0.085-0.439 0.054-0.604 0.165l0.604 0.659c0.783 0.569 1.848 0.658 3.13 0.604zM16.73 4.232c0.192 0.022 0.27 0.069 0.439 0.11 0.801 1.613-0.112 2.902-1.318 3.405-0.626 0.261-1.493 0.451-1.482-0.494 0.782-0.533 1.948-0.454 2.141-1.593 0.068-0.399-0.183-0.785-0.11-1.208 0.125-0.070 0.233-0.143 0.334-0.224l-0.005 0.004zM21.671 5.88c1.194-0.030 2.46 0.679 2.525 1.702-0.042 0.063-0.079 0.136-0.107 0.212l-0.002 0.007c-0.178 0.104-0.239 0.159-0.549 0.165-0.539-0.553-1.077-1.418-2.306-1.098-0.358 0.093-0.641 0.287-1.043 0.33-0.266-0.213-0.395-0.197-0.384-0.714 0.044-0.056 0.019-0.015 0.055-0.11 0.247-0.144 0.458-0.297 0.823-0.329-0.034-0.527-0.329-0.715-0.384-1.208 0.042-0.063 0.079-0.136 0.107-0.212l0.002-0.007c0.188-0.11 0.271-0.164 0.604-0.165 0.299 0.404 0.576 0.788 0.658 1.428zM15.632 8.625c0.192 0.022 0.27 0.069 0.439 0.11 0.082 0.182 0.113 0.356 0.11 0.659-0.341 0.23-0.806 1.037-0.659 1.702 0.072 0.325 0.172 0.576 0.11 0.934-0.982 0.657-1.292-0.817-1.043-1.757 0.197-0.744 0.523-1.227 1.043-1.648zM19.804 11.866c-1.061-0.018-1.768-0.861-2.141-1.592-0.269-0.528-0.407-1.313 0.439-1.318 0.495 0.534 0.565 1.361 1.208 1.757 0.351 0.216 1.202 0.097 1.372 0.494 0.203 0.326 0.094 0.936 0.329 1.263 0.243 0.338 0.879 0.17 1.043 0.604 0.181 0.247-0.015 0.538-0.22 0.604-0.255 0.168-0.694-0.023-0.878-0.11-0.633-0.298-1.11-0.83-1.153-1.702zM19.53 15.984h0.494c0.334 0.54 0.706 1.593 1.812 1.318 0.417-0.104 0.708-0.305 1.208-0.22 0.116 0.197 0.167 0.306 0.165 0.659-1.219 0.829-2.729 0.715-3.514-0.439-0.328-0.484-0.55-0.728-0.165-1.318z"></path>
</svg>
