<!-- Generated by IcoMoon.io -->
<svg version="1.1" xmlns="http://www.w3.org/2000/svg" width="32" height="32" viewBox="0 0 32 32">
<title>ortho-icon</title>
<path d="M8.072 5.55c-0.747-0.294-0.838-0.737-1.268-1.158 0.068-0.19-0.021-0.377-0.027-0.607-0.039-1.517 1.554-2.542 2.432-2.236 0.115 0.562-0.002 1.27 0.776 1.485 0.086-0.141 0.205-0.156 0.272-0.255 0.173-0.255 0.063-0.562 0.069-0.712 0.007-0.16 0.819-0.888 0.931-0.933 1.026-0.412 3.243 0.083 3.044 1.464 0.204 0.663-1.174 1.928-1.949 1.708-0.221 0.072-0.411-0.011-0.589-0.034-0.369 0.314-0.584 0.394-0.781 1.109 0.204 0.21 0.28 0.408 0.414 0.65-0.169 0.439-0.502 0.55-0.684 1.003 0.126 0.422-0.079 0.826-0.042 1.319 0.047 0.625 0.129 1.456 0.214 2.057 0.052 0.364-0.080 0.69-0.034 1.055 0.13 1.019 0.179 2.214 0.33 3.287 0.203 1.45 0.563 3.035 0.71 4.526 0.183 1.863 0.289 3.704 0.842 5.229 0.212 0.585 0.797 1.351 1.295 1.765 0.279 0.232 0.675 0.323 0.898 0.588 0.138 0.164 0.143 0.384 0.308 0.553-0.113 0.651 0.045 1.36-0.481 1.926-0.198 0.213-0.53 0.307-0.746 0.52-0.16-0.028-1.364-0.068-1.521-0.033-0.48-0.157-0.799-0.434-1.267-0.693-0.171 0.249-0.416 0.285-0.65 0.414-1.117 0.613-2.382 0.506-2.893-0.822-0.083-0.216 0.040-0.435 0.069-0.712 0.123-1.164 1.297-1.235 1.764-2.227 0.093-0.197-0.064-0.543-0.071-0.686l0.114-0.167c-0.027-0.432-0.083-1.009-0.125-1.433-0.035-0.352 0.144-0.554 0.122-0.897-0.113-1.725-0.188-3.758-0.298-5.74-0.070-1.262-0.409-2.63-0.559-3.885-0.044-0.367 0.078-0.688 0.034-1.055-0.136-1.132-0.269-2.548-0.489-3.665-0.094-0.475 0.052-0.909-0.002-1.398-0.044-0.405-0.208-0.862-0.16-1.31z"></path>
<path d="M23.864 5.55c0.747-0.294 0.838-0.737 1.268-1.158-0.068-0.19 0.021-0.377 0.027-0.607 0.039-1.517-1.554-2.542-2.432-2.236-0.115 0.562 0.002 1.27-0.776 1.485-0.086-0.141-0.205-0.156-0.272-0.255-0.173-0.255-0.063-0.562-0.069-0.712-0.007-0.16-0.819-0.888-0.931-0.933-1.026-0.412-3.243 0.083-3.044 1.464-0.204 0.663 1.174 1.928 1.949 1.708 0.221 0.072 0.411-0.011 0.589-0.034 0.369 0.314 0.584 0.394 0.781 1.109-0.204 0.21-0.28 0.408-0.414 0.65 0.169 0.439 0.502 0.55 0.684 1.003-0.126 0.422 0.079 0.826 0.042 1.319-0.047 0.625-0.129 1.456-0.214 2.057-0.052 0.364 0.080 0.69 0.034 1.055-0.13 1.019-0.179 2.214-0.33 3.287-0.203 1.45-0.563 3.035-0.71 4.526-0.183 1.863-0.289 3.704-0.843 5.229-0.212 0.585-0.797 1.351-1.295 1.765-0.279 0.232-0.675 0.323-0.898 0.588-0.138 0.164-0.143 0.384-0.308 0.553 0.113 0.651-0.045 1.36 0.481 1.926 0.198 0.213 0.53 0.307 0.747 0.52 0.16-0.028 1.364-0.068 1.521-0.033 0.48-0.157 0.799-0.434 1.267-0.693 0.171 0.249 0.416 0.285 0.65 0.414 1.117 0.613 2.382 0.506 2.893-0.822 0.083-0.216-0.040-0.435-0.069-0.712-0.123-1.164-1.297-1.235-1.764-2.227-0.093-0.197 0.064-0.543 0.071-0.686l-0.114-0.167c0.027-0.432 0.083-1.009 0.125-1.433 0.035-0.352-0.144-0.554-0.122-0.897 0.113-1.725 0.188-3.758 0.298-5.74 0.070-1.262 0.409-2.63 0.559-3.885 0.044-0.367-0.078-0.688-0.034-1.055 0.136-1.132 0.269-2.548 0.489-3.665 0.093-0.475-0.052-0.909 0.002-1.398 0.044-0.405 0.208-0.862 0.16-1.31z"></path>
</svg>
