<!-- Generated by IcoMoon.io -->
<svg version="1.1" xmlns="http://www.w3.org/2000/svg" width="32" height="32" viewBox="0 0 32 32">
<title>other-icon</title>
<path d="M19.136 15.968c0 1.714-1.39 3.104-3.104 3.104s-3.104-1.39-3.104-3.104c0-1.714 1.39-3.104 3.104-3.104s3.104 1.39 3.104 3.104z"></path>
<path d="M19.136 25.184c0 1.714-1.39 3.104-3.104 3.104s-3.104-1.39-3.104-3.104c0-1.714 1.39-3.104 3.104-3.104s3.104 1.39 3.104 3.104z"></path>
<path d="M19.136 6.752c0 1.714-1.39 3.104-3.104 3.104s-3.104-1.39-3.104-3.104c0-1.714 1.39-3.104 3.104-3.104s3.104 1.39 3.104 3.104z"></path>
</svg>
