<!-- Generated by IcoMoon.io -->
<svg version="1.1" xmlns="http://www.w3.org/2000/svg" width="32" height="32" viewBox="0 0 32 32">
<title>pedia-icon</title>
<path d="M11.968 18.048c0.013-0.574 0.125-2.188-0.128-2.304-0.233 0.352-0.602 0.602-0.896 0.896-0.798 0.798-1.644 1.562-2.432 2.368-1.286 0.045-1.317-0.123-1.984-0.832-0.048-0.654-0.057-1.166 0.256-1.6 0.321-0.445 1.144-1.064 1.6-1.408l0.64-0.704c0.531-0.539 1.095-1.042 1.69-1.507l0.038-0.029c0.76-0.574 1.191-1.489 2.112-1.92 0.586-0.274 1.905 0.019 2.688-0.128v-0.064c-2.335 0.023-4.504-3.028-3.328-5.504 0.736-1.549 2.307-2.736 4.672-2.432 2.238 0.287 4.082 3.647 2.688 5.952-0.402 0.664-1.117 1.413-1.856 1.728-0.36 0.154-0.872 0.11-1.216 0.32h0.064c0.542 0.322 1.955-0.098 2.496 0.128 0.784 0.327 1.223 1.121 1.856 1.6 1.15 0.87 2.071 2.090 3.2 2.944 0.546 0.413 1.299 0.897 1.536 1.6 0.322 0.957-0.47 1.431-0.896 1.856-0.419 0.009-0.685 0.135-1.088 0-0.421-0.141-0.665-0.557-0.96-0.832-0.488-0.455-1.001-0.873-1.472-1.344-0.367-0.367-0.673-0.836-1.152-1.088v2.24c-0.653 0.216-1.782 0.064-2.56 0.064h-5.568zM11.392 19.52c0.26 0.131 0.284 0.414 0.448 0.64l0.512 0.448c0.318 0.422 0.723 0.917 1.152 1.216 0.337 0.234 0.901 0.329 1.024 0.768-0.338 0.218-1.405 1.23-1.536 1.6 0.349 0.281 0.463 0.825 0.704 1.216 0.507 0.821 1.257 1.626 1.28 2.88-0.223 0.257-0.211 0.575-0.576 0.704-0.602 0.474-1.417-0.048-1.792-0.384-0.44-0.394-0.738-0.919-1.088-1.408-0.495-0.693-1.089-1.333-1.6-2.048-0.377-0.528-1.023-0.962-1.024-1.856 0-0.351 0.533-0.847 0.704-1.088 0.344-0.483 0.553-0.99 0.896-1.472 0.284-0.398 0.659-0.761 0.896-1.216zM20.544 19.52c0.245 0.173 0.278 0.386 0.448 0.64 0.599 0.894 1.36 1.745 1.92 2.688 0.146 0.246 0.265 0.767 0.064 1.088-0.189 0.604-0.754 1-1.088 1.472-0.74 1.046-2.341 3.768-3.904 3.776-0.261-0.198-0.671-0.286-0.832-0.576-0.323-0.582 0.039-1.204 0.256-1.6 0.341-0.624 0.588-1.247 0.96-1.856 0.219-0.358 0.55-0.671 0.64-1.152-0.305-0.196-1.461-1.251-1.536-1.6 1.11-0.302 2.526-1.943 3.072-2.88z"></path>
</svg>
