<!-- Generated by IcoMoon.io -->
<svg version="1.1" xmlns="http://www.w3.org/2000/svg" width="32" height="32" viewBox="0 0 32 32">
<title>wh-icon</title>
<path d="M6.784 29.888c0.107-7.15 5.602-11.197 9.108-14.691-1.218-2.394-1.972-4.633-2.494-7.508-0.762-4.204 3.074-6.908 6.289-4.897 3.031 1.896 2.439 7.679 0.867 10.664l-1.952 3.156c0.539 1.629 5.048 6.52 6.614 7.182-0.426 1.153-2.181 2.022-3.036 2.829l-0.217-0.109c-5.783-10.737-4.192-8.053-4.771-8.053-0.879 2.498-3.184 4.285-4.228 6.856-0.506 1.246-0.282 2.98-0.542 4.353zM17.193 3.772c-4.775 0.041-0.759 10.011 0 10.011s5.203-10.056 0-10.011z"></path>
</svg>
